<svg width="887" height="751" viewBox="0 0 887 751" fill="none" xmlns="http://www.w3.org/2000/svg">
<path d="M829.46 0.443359C873.17 0.443359 900.49 47.716 878.64 85.5332L746.99 313.276C732 339.22 704.28 355.202 674.29 355.202H471.53C433.51 355.202 409.75 314.096 428.76 281.211L566.82 42.3696C581.82 16.4255 609.53 0.443359 639.52 0.443359H829.46Z" fill="#FF3366"/>
<path d="M418.61 0.443359C462.32 0.443359 489.65 47.716 467.79 85.5332L287.11 398.12C265.258 435.941 210.605 435.948 188.745 398.127L8.05605 85.5332C-13.8029 47.716 13.52 0.443359 57.238 0.443359H418.61Z" fill="#FFC400"/>
<path d="M608.04 584.84C608.04 676.1 533.97 750.083 442.6 750.083C351.24 750.083 277.17 676.1 277.17 584.84C277.17 493.576 351.24 419.593 442.6 419.593C533.97 419.593 608.04 493.576 608.04 584.84Z" fill="#3C69F5"/>
</svg>
