<svg width="16" height="16" viewBox="0 0 16 16" fill="none" xmlns="http://www.w3.org/2000/svg">
<path fill-rule="evenodd" clip-rule="evenodd" d="M11.875 7.5C12.91 7.5 13.7425 6.62 13.7425 5.53571C13.7425 4.45143 12.91 3.57143 11.875 3.57143C10.84 3.57143 10 4.45143 10 5.53571C10 6.62 10.84 7.5 11.875 7.5ZM6.25 6.71429C7.495 6.71429 8.4925 5.66143 8.4925 4.35714C8.4925 3.05286 7.495 2 6.25 2C5.005 2 4 3.05286 4 4.35714C4 5.66143 5.005 6.71429 6.25 6.71429ZM11.875 9.07143C10.5025 9.07143 7.75 9.79429 7.75 11.2321V13H16V11.2321C16 9.79429 13.2475 9.07143 11.875 9.07143ZM6.25 8.28571C4.5025 8.28571 1 9.205 1 11.0357V13H6.25V11.2321C6.25 10.5643 6.4975 9.39357 8.0275 8.50571C7.375 8.36429 6.745 8.28571 6.25 8.28571Z" fill="#BFDAF9"/>
</svg>
