<svg width="120" height="32" viewBox="0 0 120 32" fill="none" xmlns="http://www.w3.org/2000/svg">
<path fill-rule="evenodd" clip-rule="evenodd" d="M82.5261 16.2493C82.5261 11.4657 79.1044 8.03867 74.4025 8.03867C69.7238 8.03867 66.3021 11.4657 66.3021 16.2493C66.3021 21.0328 69.7238 24.4598 74.4025 24.4598C79.1044 24.4598 82.5261 21.0328 82.5261 16.2493ZM74.4025 21.4612C71.5394 21.4612 69.7005 19.2003 69.7005 16.2493C69.7005 13.2744 71.5394 11.0373 74.4025 11.0373C77.2655 11.0373 79.1277 13.2744 79.1277 16.2493C79.1277 19.2003 77.2655 21.4612 74.4025 21.4612ZM118.987 21.1498V24.1247H109.118V8.25089H112.423V21.1498H118.987ZM70.1475 24.0301C69.3701 23.6217 68.8376 23.0608 68.8376 23.0608L66.6957 26.3309L69.4131 28.0288L71.5492 24.6104C71.5492 24.6104 70.9249 24.4384 70.1475 24.0301ZM107.01 24.1247V21.1498H99.329V17.5562H106.847V14.5814H99.329V11.2257H107.01V8.25089H96.0237V24.1247H107.01ZM89.758 11.2257V24.1247H86.4294V11.2257H81.8903V8.25089H94.2737V11.2257H89.758ZM63.8486 8.25089V24.1247H60.52V17.461H53.1878V24.1247H49.8824V8.25089H53.1878V14.4862H60.52V8.25089H63.8486Z" fill="#0077FF"/>
<path fill-rule="evenodd" clip-rule="evenodd" d="M3.30533 17.5562V24.1247H0V8.25089H10.9867V11.2257H3.30533V14.5814H10.8238V17.5562H3.30533ZM15.5681 24.1247V8.25089H12.2628V24.1247H15.5681ZM31.3552 8.25089V24.1247H28.1663L20.7642 13.7722V24.1247H17.4589V8.25089H20.8573L28.0499 18.2226V8.25089H31.3552ZM47.8247 16.1997C47.8247 20.9833 44.4495 24.1247 39.5846 24.1247H33.4628V8.25089H39.5846C44.4495 8.25089 47.8247 11.4161 47.8247 16.1997ZM36.7681 21.1498H39.5846C42.6572 21.1498 44.4495 18.889 44.4495 16.1997C44.4495 13.3914 42.7736 11.2257 39.5846 11.2257H36.7681V21.1498Z" fill="#2A333D"/>
</svg>
