<svg width="310" height="19" viewBox="0 0 310 19" fill="none" xmlns="http://www.w3.org/2000/svg">
<path d="M29.6024 14.8102H27.74C27.7317 14.8102 27.7267 14.8086 27.7217 14.8027L26.117 12.8464L24.5107 14.8027C24.5074 14.8086 24.5016 14.8102 24.4932 14.8102H23.002C22.9929 14.8102 22.9862 14.8061 22.9795 14.7961C22.977 14.7903 22.977 14.7794 22.9828 14.7728L25.3464 11.8748L23.0104 9.00439C23.0037 8.9944 23.0037 8.98607 23.0062 8.97691C23.0104 8.97192 23.0195 8.96359 23.027 8.96359H24.8902C24.8961 8.96359 24.9027 8.96692 24.9077 8.97525L26.3155 10.7168L27.7484 8.97442C27.7525 8.96692 27.7592 8.96359 27.7659 8.96359H29.2846C29.2938 8.96359 29.303 8.97192 29.3063 8.97691C29.3105 8.98607 29.3088 8.99606 29.303 9.00439L27.0853 11.6626L29.6182 14.7728C29.6249 14.7794 29.6274 14.7903 29.6224 14.7961C29.6182 14.8061 29.6099 14.8102 29.6024 14.8102Z" fill="#072F54"/>
<path fill-rule="evenodd" clip-rule="evenodd" d="M42.3659 12.2638C42.3734 12.2638 42.3818 12.2597 42.386 12.253C42.3893 12.2347 42.4327 11.6519 42.4327 11.4014C42.4327 9.85207 41.3568 8.7257 39.6821 8.7257C37.8465 8.7257 36.5162 10.061 36.5162 11.9C36.5162 13.739 37.8465 15.0743 39.6821 15.0743C40.3902 15.0743 41.2909 14.8171 42.1875 14.44C42.195 14.4375 42.2 14.4308 42.2016 14.42L42.2033 13.1113C42.2033 13.093 42.1858 13.078 42.1683 13.088C41.2042 13.6 40.522 13.8189 39.8798 13.8189C38.8364 13.8189 38.1917 13.2545 38.1033 12.2638H42.3659ZM38.1334 11.3622C38.2943 10.4939 38.8573 9.99443 39.6821 9.99443C40.426 9.99443 40.939 10.6113 40.939 11.3064V11.3622H38.1334Z" fill="#072F54"/>
<path fill-rule="evenodd" clip-rule="evenodd" d="M50.2553 14.7863C50.2553 14.8013 50.2645 14.8104 50.2795 14.8104H51.8099C51.8224 14.8104 51.8324 14.8013 51.8324 14.7863V8.98792C51.8324 8.97626 51.8258 8.96711 51.8133 8.96461H50.2737C50.2637 8.96711 50.2553 8.97626 50.2553 8.98792V14.7863ZM50.0969 6.82425C50.0969 7.33874 50.5222 7.75665 51.0451 7.75665C51.5681 7.75665 51.9942 7.33874 51.9942 6.82425C51.9942 6.29478 51.5681 5.86604 51.0451 5.86604C50.5222 5.86604 50.0969 6.29478 50.0969 6.82425Z" fill="#072F54"/>
<path fill-rule="evenodd" clip-rule="evenodd" d="M31.5032 8.96375C31.9636 8.80557 32.4023 8.72648 32.8368 8.72648C34.6841 8.72648 35.976 10.0219 35.976 11.875C35.976 13.8189 34.6183 15.0743 32.5199 15.0743C32.2188 15.0743 31.9069 15.0385 31.5291 14.9852L31.5299 17.8773C30.9795 18.2686 30.4124 18.4334 29.9495 18.4967V8.98789C29.9495 8.97457 29.9587 8.96375 29.9712 8.96375H31.5032ZM31.5291 13.8106C31.856 13.898 32.1404 13.9371 32.4181 13.9371C33.5983 13.9371 34.3614 13.1237 34.3614 11.865C34.3614 10.6978 33.645 9.91196 32.5774 9.91196C32.248 9.91196 31.9152 9.96941 31.5324 10.091L31.5291 13.8106Z" fill="#072F54"/>
<path fill-rule="evenodd" clip-rule="evenodd" d="M47.4761 8.92929V5.894C48.0324 5.4919 48.5878 5.33539 49.0565 5.27295V14.5395C48.5795 14.8767 48.0957 15.0448 47.6746 15.1248L47.6754 14.6011C47.0374 14.9291 46.4953 15.074 45.9157 15.074C44.2426 15.074 43.0266 13.757 43.0266 11.9404C43.0266 10.1156 44.4053 8.74198 46.2309 8.74198C46.6304 8.74198 47.0266 8.80109 47.4761 8.92929ZM46.165 13.8261C46.5678 13.8261 46.9965 13.707 47.4761 13.4556V10.1364C47.1091 9.97075 46.8072 9.89499 46.497 9.89499C45.3727 9.89499 44.6455 10.735 44.6455 12.0337C44.6455 13.1559 45.2151 13.8261 46.165 13.8261Z" fill="#072F54"/>
<path fill-rule="evenodd" clip-rule="evenodd" d="M58.6827 8.82957C58.7178 8.82957 58.7486 8.85788 58.7486 8.89368L58.7469 14.5372C58.2899 14.8652 57.8087 15.0384 57.4009 15.1249V14.379C56.8237 15.0417 56.2074 15.075 55.7262 15.075C53.9289 15.075 52.7212 13.8379 52.7212 11.9922C52.7212 10.1666 54.0707 8.74216 55.7921 8.74216C56.2749 8.74216 56.7645 8.85788 57.3391 9.10929H57.3708V8.89784C57.3708 8.86287 57.4017 8.83124 57.4384 8.83124L58.6827 8.82957ZM55.9497 13.8396C56.305 13.8396 56.7028 13.7114 57.1665 13.4441V10.2415C56.7412 10.0167 56.3942 9.90766 56.1081 9.90766C55.0406 9.90766 54.3225 10.766 54.3225 12.0455C54.3225 13.1719 54.9322 13.8396 55.9497 13.8396Z" fill="#072F54"/>
<path d="M18.7424 13.3594L22.6072 13.3577C22.5488 13.7889 22.4029 14.2934 22.0676 14.8079H18.7516H18.0911H18.0469C17.5548 14.8079 17.1503 14.4275 17.1019 13.9463C17.0994 13.9388 17.0969 13.9321 17.0961 13.9255V9.97443V6.31726C17.0969 6.31143 17.0994 6.3031 17.1019 6.29811C17.1503 5.81609 17.5548 5.43397 18.0469 5.43397C18.0627 5.43397 18.0777 5.43564 18.0911 5.43564L22.5989 5.4348C22.5397 5.86521 22.3937 6.38302 22.0593 6.89584L18.7424 6.89584V8.9671H22.0259C22.0392 8.9671 22.0493 8.97626 22.0493 8.98958V10.4265C22.0493 10.4381 22.0392 10.449 22.0259 10.449H18.7424V13.3577V13.3594Z" fill="#072F54"/>
<path fill-rule="evenodd" clip-rule="evenodd" d="M13.1789 14.2661C13.1789 13.8223 13.5134 13.5285 13.9045 13.5285C14.2906 13.5285 14.6268 13.8223 14.6268 14.2661C14.6268 14.709 14.2906 15.0012 13.9045 15.0012C13.4808 15.0012 13.1789 14.6856 13.1789 14.2661ZM13.2865 14.2661C13.2865 14.6307 13.5225 14.9287 13.9045 14.9287C14.2489 14.9287 14.5183 14.6573 14.5183 14.2661C14.5183 13.8756 14.2489 13.6034 13.9045 13.6034C13.5567 13.6034 13.2865 13.8756 13.2865 14.2661Z" fill="#072F54"/>
<path fill-rule="evenodd" clip-rule="evenodd" d="M13.9288 13.8291C14.1389 13.8291 14.2474 13.904 14.2474 14.0797C14.2474 14.2379 14.1514 14.302 14.0188 14.3178L14.264 14.7007H14.1014L13.8754 14.3278H13.742V14.7007H13.5977V13.8291H13.9288ZM13.7311 13.9365V14.2054H13.8987C14.013 14.2054 14.1131 14.1946 14.1131 14.0622C14.1131 13.9507 14.0047 13.9365 13.9129 13.9365H13.7311Z" fill="#072F54"/>
<path fill-rule="evenodd" clip-rule="evenodd" d="M59.2938 9.26631C59.2938 8.82258 59.6282 8.52871 60.0194 8.52871C60.4047 8.52871 60.74 8.82258 60.74 9.26631C60.74 9.70836 60.4047 10.0014 60.0194 10.0014C59.5949 10.0014 59.2938 9.68589 59.2938 9.26631ZM59.3997 9.26631C59.3997 9.63094 59.6374 9.92898 60.0194 9.92898C60.363 9.92898 60.6332 9.65758 60.6332 9.26631C60.6332 8.87586 60.363 8.60364 60.0194 8.60364C59.6708 8.60364 59.3997 8.87586 59.3997 9.26631Z" fill="#072F54"/>
<path fill-rule="evenodd" clip-rule="evenodd" d="M60.0429 8.829C60.2531 8.829 60.3615 8.90392 60.3615 9.07958C60.3615 9.23775 60.2648 9.30269 60.133 9.31767L60.3774 9.70062H60.2156L59.9895 9.3285H59.8544V9.70062H59.7118V8.829H60.0429ZM59.8453 8.93722V9.20529H60.0137C60.1263 9.20529 60.2272 9.1953 60.2272 9.0621C60.2272 8.95054 60.1188 8.93722 60.0271 8.93722H59.8453Z" fill="#072F54"/>
<path d="M8.91922 6.88874L8.63899 6.09703L6.26207 2.92604L6.68908 2.82031L10.7874 6.35677L13.1993 5.66829C13.4829 5.59503 13.8048 5.57921 14.05 5.58088C13.2919 3.94918 11.905 2.60969 10.0735 1.95867C6.45305 0.670794 2.47233 2.5589 1.18462 6.17445C0.785968 7.2925 0.690891 8.44634 0.858527 9.54358L6.63654 7.53975L8.91922 6.88874Z" fill="#072F54"/>
<path d="M14.3039 6.20589C14.0921 6.34325 13.781 6.52307 13.4724 6.62214L11.0554 7.31062L9.44247 12.4788L9.0238 12.6145L9.36408 8.66759L9.17392 7.84758L6.90876 8.49277L0.922245 9.89969C1.39596 12.1999 3.02728 14.2029 5.40504 15.0487C9.0263 16.3366 13.0054 14.4476 14.2931 10.8346C14.8485 9.27698 14.8127 7.65194 14.3039 6.20589Z" fill="#072F54"/>
<path d="M9.17376 7.84807L9.36474 8.66725L9.02363 12.6141L9.44231 12.4784L11.0553 7.31111L13.4722 6.62263C13.7808 6.52357 14.0919 6.34208 14.3037 6.20638C14.2295 5.9941 14.1444 5.78514 14.0502 5.58118C13.805 5.57951 13.4831 5.59616 13.1995 5.66776L10.7876 6.3579L6.68841 2.81977L6.26223 2.92633L8.63832 6.09733L8.91938 6.8882L6.63587 7.54088L0.858694 9.54304C0.877042 9.66292 0.897892 9.78197 0.922079 9.90019L6.90942 8.49326L9.17376 7.84807Z" fill="#FBC108"/>
<path d="M109.06 6.56664C109.06 5.94324 109.567 5.43903 110.192 5.43903C110.818 5.43903 111.327 5.94324 111.327 6.56664C111.327 7.18923 110.818 7.69397 110.192 7.69397C109.567 7.69397 109.06 7.18923 109.06 6.56664Z" fill="#273B7D"/>
<path d="M126.947 14.0668C126.947 13.4432 127.454 12.9384 128.079 12.9384C128.705 12.9384 129.214 13.4432 129.214 14.0668C129.214 14.6889 128.705 15.1942 128.079 15.1942C127.454 15.1942 126.947 14.6889 126.947 14.0668Z" fill="#499FDD"/>
<path fill-rule="evenodd" clip-rule="evenodd" d="M86.889 11.7109C86.889 9.67744 88.3882 8.20087 90.4538 8.20087C92.5272 8.20087 94.0326 9.67744 94.0326 11.7109C94.0326 13.7443 92.5272 15.2206 90.4538 15.2206C88.3882 15.2206 86.889 13.7443 86.889 11.7109ZM88.7989 11.7109C88.7989 12.8102 89.4774 13.5795 90.4538 13.5795C91.4501 13.5795 92.1218 12.8275 92.1218 11.7109C92.1218 10.6119 91.4358 9.84311 90.4538 9.84311C89.4774 9.84311 88.7989 10.6119 88.7989 11.7109Z" fill="#273B7D"/>
<path d="M106.864 11.8864C106.784 11.7365 106.692 11.6096 106.594 11.5089L106.532 11.4431L106.597 11.3806C106.692 11.2815 106.789 11.1639 106.882 11.0276L108.705 8.33927H106.492L105.123 10.4422C105.045 10.5549 104.889 10.6119 104.654 10.6119H104.342V6.63609C104.342 5.84089 103.843 5.73267 103.303 5.73267H102.38L102.381 15.1172H104.342V12.3022H104.526C104.749 12.3022 104.902 12.3278 104.971 12.4484L106.053 14.4738C106.355 15.0234 106.656 15.1172 107.223 15.1172H108.726L107.606 13.2807L106.864 11.8864" fill="#273B7D"/>
<path d="M116.383 8.18591C115.386 8.18591 114.75 8.62547 114.393 8.99715L114.274 9.1166L114.232 8.95414C114.127 8.55599 113.774 8.33688 113.243 8.33688H112.364L112.369 15.1148H114.317V11.9909C114.317 11.6855 114.357 11.4205 114.438 11.1786C114.655 10.4467 115.26 9.99169 116.016 9.99169C116.623 9.99169 116.861 10.3099 116.861 11.1324V14.0845C116.861 14.7864 117.188 15.1148 117.896 15.1148H118.823L118.82 10.804C118.82 9.09121 117.978 8.18591 116.384 8.18591" fill="#273B7D"/>
<path d="M110.217 8.33984H109.294L109.301 13.5806H109.3V15.1165H110.285C110.298 15.1165 110.308 15.1178 110.32 15.1178L110.779 15.1165H111.236V15.1138H111.239L111.243 9.36886C111.243 8.67573 110.909 8.33985 110.218 8.33985" fill="#273B7D"/>
<path fill-rule="evenodd" clip-rule="evenodd" d="M94.5363 11.7109C94.5363 9.67744 96.0357 8.20087 98.1034 8.20087C100.175 8.20087 101.682 9.67744 101.682 11.7109C101.682 13.7443 100.175 15.2206 98.1034 15.2206C96.0357 15.2206 94.5363 13.7443 94.5363 11.7109ZM96.4472 11.7109C96.4472 12.8102 97.1271 13.5795 98.1034 13.5795C99.0997 13.5795 99.7712 12.8275 99.7712 11.7109C99.7712 10.6119 99.0833 9.84311 98.1034 9.84311C97.1271 9.84311 96.4472 10.6119 96.4472 11.7109Z" fill="#273B7D"/>
<path fill-rule="evenodd" clip-rule="evenodd" d="M136.281 11.7109C136.281 9.67744 137.781 8.20087 139.848 8.20087C141.92 8.20087 143.427 9.67744 143.427 11.7109C143.427 13.7443 141.92 15.2206 139.848 15.2206C137.781 15.2206 136.281 13.7443 136.281 11.7109ZM138.192 11.7109C138.192 12.8102 138.872 13.5795 139.848 13.5795C140.845 13.5795 141.516 12.8275 141.516 11.7109C141.516 10.6119 140.828 9.84311 139.848 9.84311C138.872 9.84311 138.192 10.6119 138.192 11.7109Z" fill="#499FDD"/>
<path fill-rule="evenodd" clip-rule="evenodd" d="M124.481 8.73473C124.624 8.46778 124.908 8.32162 125.278 8.32162H125.278H126.183L126.176 14.5379C126.176 16.908 124.239 17.7503 122.581 17.7503C121.775 17.7503 120.884 17.5352 120.199 17.1747L120.064 17.1031L120.282 16.5489L120.437 16.1695C120.604 15.7582 120.847 15.6559 121.26 15.7796C121.576 15.8934 122.049 16.019 122.569 16.019C123.639 16.019 124.229 15.5196 124.229 14.6143V14.426L124.079 14.5379C123.691 14.8297 123.201 14.9732 122.581 14.9732C120.765 14.9732 119.497 13.5637 119.497 11.5468C119.497 9.52753 120.723 8.17065 122.544 8.17065C123.459 8.17065 124.023 8.49076 124.337 8.76064L124.427 8.8384L124.481 8.73473ZM121.483 11.496C121.483 12.3596 121.862 13.2812 122.926 13.2812C123.537 13.2812 124.267 12.9828 124.267 11.5599C124.267 10.0512 123.443 9.87543 122.824 9.87543C121.58 9.87543 121.483 11.1155 121.483 11.496Z" fill="#273B7D"/>
<path fill-rule="evenodd" clip-rule="evenodd" d="M84.939 10.1461L85.2256 10.3059L85.2252 10.3058C85.9209 10.6944 86.3348 11.4583 86.3348 12.3518C86.3348 14.0115 85.0541 15.083 83.0698 15.083L80.7409 15.0836C80.7405 15.0833 80.7401 15.0833 80.7395 15.0833C80.7389 15.0833 80.7381 15.0833 80.7369 15.083H79.8021V6.71059C79.808 6.18232 80.2314 5.75533 80.7606 5.73608H80.9926V5.73668H83.0296C84.8145 5.73668 85.9679 6.68873 85.9679 8.16372C85.9679 9.1278 85.4801 9.68572 85.1892 9.93395L84.939 10.1461ZM81.6156 8.42932V7.93445C81.6156 7.50131 81.8003 7.2953 82.2057 7.26884H83.0169C83.7126 7.26884 84.1293 7.68194 84.1293 8.37294C84.1293 8.89987 83.8441 9.51471 83.0425 9.51471H81.6156V8.42932ZM83.2009 13.5017L81.6156 13.5001V11.6198C81.6156 11.2179 81.7726 11.009 82.1197 10.9609H83.2009C83.9725 10.9609 84.4711 11.4437 84.4717 12.2248C84.4711 13.0264 83.9849 13.5012 83.2009 13.5017V13.5017Z" fill="#273B7D"/>
<path d="M152.127 8.20782C151.319 8.20782 150.537 8.58325 150.036 9.21278L149.895 9.39021L149.784 9.19167C149.423 8.53916 148.803 8.20782 147.939 8.20782C147.034 8.20782 146.427 8.70883 146.145 9.00677L145.96 9.20503L145.889 8.94424C145.786 8.56882 145.45 8.362 144.939 8.362H144.121L144.113 15.1138H145.973V12.1334C145.973 11.8723 146.005 11.6139 146.071 11.3438C146.249 10.6236 146.737 9.84901 147.557 9.92649C148.063 9.97459 148.31 10.3623 148.31 11.1113V15.1138H150.183V12.1334C150.183 11.8071 150.213 11.5629 150.287 11.3178C150.438 10.6303 150.948 9.92543 151.739 9.92543C152.312 9.92543 152.523 10.2471 152.523 11.1113V14.1267C152.523 14.8089 152.83 15.1138 153.517 15.1138H154.392L154.394 10.8035C154.394 9.08159 153.63 8.20782 152.126 8.20782" fill="#499FDD"/>
<path d="M135.204 12.7695C135.199 12.7762 134.399 13.6134 133.345 13.6134C132.385 13.6134 131.415 13.029 131.415 11.7245C131.415 10.5982 132.167 9.81103 133.243 9.81103C133.593 9.81103 133.991 9.93528 134.053 10.1442L134.062 10.1795C134.205 10.6533 134.639 10.6786 134.725 10.6786L135.743 10.6797V9.79604C135.743 8.63048 134.249 8.20776 133.243 8.20776C131.093 8.20776 129.533 9.69316 129.533 11.7386C129.533 13.7833 131.076 15.2665 133.204 15.2665C135.05 15.2665 136.055 14.0625 136.064 14.0505L136.118 13.9853L135.311 12.6573L135.204 12.7695" fill="#499FDD"/>
<path fill-rule="evenodd" clip-rule="evenodd" d="M182.314 5.59369C182.314 4.69782 183.034 3.96598 183.915 3.96598C184.797 3.96598 185.517 4.69782 185.529 5.59369V15.7638C185.529 16.6596 184.809 17.3915 183.928 17.3915C183.047 17.3915 182.327 16.6596 182.327 15.7638V12.5083H178.318V15.7638C178.318 16.8868 177.424 17.7953 176.32 17.7953C175.215 17.7953 174.322 16.8868 174.322 15.7638V5.1773C174.322 4.05431 175.215 3.14581 176.32 3.14581C177.424 3.14581 178.318 4.05431 178.318 5.1773V8.02896L182.314 8.24346V5.59369ZM173.912 5.18992C173.912 4.86185 173.974 4.54641 174.098 4.25619C173.515 4.6095 173.118 5.25301 173.118 5.99747V15.36C173.118 16.2306 173.664 16.9751 174.421 17.2653C174.098 16.8489 173.912 16.3316 173.912 15.7764V5.18992ZM181.917 5.5937C181.917 5.16468 182.054 4.77353 182.265 4.44546C181.607 4.64735 181.111 5.26563 181.111 5.99747V7.76398L181.905 7.80184V5.5937H181.917ZM181.061 4.84924C180.837 5.1773 180.713 5.56846 180.713 5.99747H180.701V7.73875L179.907 7.70089V6.40124C179.907 5.6694 180.403 5.05112 181.061 4.84924ZM244.458 7.57471C244.383 7.57471 244.334 7.51162 244.334 7.44853V6.59051H244.098C244.036 6.59051 243.986 6.54004 243.986 6.47695C243.986 6.41386 244.036 6.36339 244.098 6.36339H244.818C244.88 6.36339 244.93 6.41386 244.93 6.47695C244.93 6.54004 244.88 6.59051 244.818 6.59051H244.582V7.44853C244.582 7.51162 244.532 7.57471 244.458 7.57471ZM246.258 7.57471C246.195 7.57471 246.133 7.51162 246.133 7.44853V6.70407L245.823 7.52424C245.811 7.54948 245.786 7.57471 245.761 7.57471C245.736 7.57471 245.711 7.54948 245.699 7.52424L245.389 6.70407V7.44853C245.389 7.51162 245.339 7.57471 245.265 7.57471C245.19 7.57471 245.141 7.51162 245.141 7.44853V6.56528C245.141 6.45172 245.227 6.36339 245.339 6.36339C245.426 6.36339 245.5 6.41386 245.525 6.50219L245.761 7.12047L245.997 6.50219C246.022 6.42648 246.096 6.36339 246.183 6.36339C246.295 6.36339 246.382 6.45172 246.382 6.56528V7.44853C246.382 7.51162 246.32 7.57471 246.258 7.57471ZM179.919 14.9562C179.919 15.7007 180.403 16.319 181.073 16.5082C180.85 16.1802 180.726 15.789 180.726 15.36V12.9121H179.931V14.9562H179.919ZM181.123 12.9247H181.917H181.93V15.7764C181.93 16.2054 182.054 16.5965 182.277 16.9246C181.607 16.7353 181.123 16.1171 181.123 15.3726V12.9247ZM171.914 6.81764C171.914 6.07318 172.311 5.42966 172.894 5.07636C172.77 5.35395 172.708 5.6694 172.708 5.99747V15.36C172.708 15.7007 172.783 16.0035 172.894 16.2937C172.311 15.9404 171.914 15.2969 171.914 14.5524V6.81764ZM197.742 13.8711V10.8554H193.423V13.8711C193.423 14.1991 193.162 14.4641 192.852 14.4641C192.529 14.4641 192.256 14.1865 192.256 13.8711V6.99429C192.256 6.67884 192.529 6.40124 192.839 6.40124C193.162 6.40124 193.423 6.67884 193.423 6.99429V9.79547H197.742V6.99429C197.742 6.67884 198.002 6.40124 198.325 6.40124C198.648 6.40124 198.908 6.67884 198.908 6.99429V13.8711C198.908 14.1991 198.648 14.4641 198.325 14.4641C198.002 14.4767 197.742 14.1991 197.742 13.8711ZM199.74 11.5241C199.74 9.87118 200.845 8.50844 202.595 8.50844C204.369 8.50844 205.449 9.87118 205.449 11.5241C205.449 13.1897 204.357 14.5524 202.595 14.5524C200.845 14.5524 199.74 13.2023 199.74 11.5241ZM204.357 11.5241C204.357 10.439 203.736 9.46741 202.595 9.46741C201.465 9.46741 200.832 10.439 200.832 11.5241C200.832 12.6219 201.465 13.5935 202.595 13.5935C203.736 13.6061 204.357 12.6219 204.357 11.5241ZM214.348 11.3853C214.348 9.87118 213.293 8.52106 211.593 8.52106C209.942 8.52106 208.751 9.85856 208.751 11.5367C208.751 12.037 208.845 12.4914 209.016 12.8872C208.999 12.9054 208.982 12.924 208.965 12.943C208.695 13.2374 208.356 13.6061 207.969 13.6061C207.609 13.6061 207.423 13.3033 207.423 12.8995V9.6062H208.167C208.428 9.6062 208.639 9.3917 208.639 9.12672C208.639 8.87436 208.428 8.65986 208.167 8.65986H207.423V7.56209C207.423 7.25926 207.187 7.01952 206.901 7.01952C206.603 7.01952 206.368 7.25926 206.368 7.56209V8.65986H205.834C205.586 8.65986 205.362 8.87436 205.362 9.12672C205.362 9.3917 205.586 9.6062 205.834 9.6062H206.368V13.1392C206.368 14.0351 206.827 14.5524 207.72 14.5524C208.056 14.5524 208.291 14.502 208.527 14.3884C208.883 14.2131 209.36 13.8475 209.48 13.6221C210.005 14.22 210.779 14.5651 211.68 14.5651C212.437 14.5651 213.107 14.3632 213.665 13.9468C213.777 13.8711 213.852 13.7449 213.852 13.5935C213.852 13.3537 213.665 13.1645 213.43 13.1645C213.33 13.1645 213.256 13.1771 213.194 13.2276C212.772 13.543 212.275 13.6944 211.791 13.6944C210.649 13.6944 209.954 12.8743 209.868 11.9027H213.727C214.125 11.9027 214.348 11.7134 214.348 11.3853ZM213.318 11.1077H209.855C209.917 10.3254 210.451 9.40432 211.593 9.3917C212.784 9.3917 213.293 10.3507 213.318 11.1077ZM215.018 6.94382V13.9342C215.018 14.237 215.254 14.4767 215.54 14.4767C215.825 14.4767 216.073 14.237 216.073 13.9342V6.94382C216.073 6.6536 215.825 6.41386 215.54 6.41386C215.254 6.41386 215.018 6.6536 215.018 6.94382ZM216.756 13.5304C216.756 13.2654 216.954 13.0635 217.215 13.0635C217.314 13.0635 217.401 13.1014 217.476 13.1518C217.91 13.4799 218.469 13.6944 219.064 13.6944C219.859 13.6944 220.281 13.3664 220.281 12.8743C220.281 12.3064 219.635 12.1172 218.915 11.9405L218.907 11.9386C217.953 11.7119 216.83 11.445 216.83 10.2119C216.83 9.29075 217.6 8.50844 218.99 8.50844C219.772 8.50844 220.392 8.74818 220.876 9.10148C220.976 9.18981 221.063 9.30337 221.063 9.45479C221.063 9.69453 220.864 9.89642 220.628 9.89642C220.541 9.89642 220.454 9.85856 220.392 9.80809C220.032 9.53049 219.536 9.36646 219.002 9.36646C218.282 9.36646 217.836 9.65667 217.836 10.1109C217.836 10.6156 218.444 10.7797 219.151 10.9437C220.132 11.1708 221.311 11.4484 221.311 12.7607C221.311 13.7449 220.516 14.5272 219.027 14.5272C218.245 14.5272 217.538 14.3253 216.967 13.8837C216.83 13.8332 216.756 13.6818 216.756 13.5304ZM223.408 13.7954C223.408 13.3916 223.073 13.0509 222.676 13.0509C222.279 13.0509 221.956 13.3916 221.944 13.7954C221.944 14.1991 222.279 14.5398 222.676 14.5398C223.073 14.5398 223.408 14.1991 223.408 13.7954ZM231.749 8.50844C229.999 8.50844 228.894 9.87118 228.894 11.5241C228.894 11.6112 228.897 11.6974 228.903 11.7826C228.87 11.8394 228.836 11.8999 228.804 11.9568L228.804 11.9569L228.804 11.957C228.774 12.0116 228.745 12.0629 228.72 12.1046C228.112 13.0761 227.368 13.6313 226.61 13.6061C225.506 13.5682 224.786 12.7228 224.786 11.5367C224.786 10.3507 225.493 9.48002 226.61 9.48002C227.057 9.48002 227.43 9.6062 227.752 9.92165C227.839 9.98474 227.951 10.0352 228.075 10.0352C228.336 10.0352 228.547 9.82071 228.547 9.54311C228.547 9.41693 228.472 9.27814 228.385 9.18981C227.951 8.78604 227.392 8.52106 226.586 8.52106C224.873 8.52106 223.694 9.80809 223.669 11.5241C223.669 13.2528 224.836 14.5524 226.548 14.5524C227.368 14.5524 228.038 14.2496 228.497 13.7954C228.737 13.5513 228.957 13.3211 229.196 12.9543C229.637 13.9071 230.539 14.5524 231.749 14.5524C233.511 14.5524 234.603 13.1897 234.603 11.5241C234.603 9.87118 233.524 8.50844 231.749 8.50844ZM231.749 9.46741C232.891 9.46741 233.511 10.439 233.511 11.5241C233.511 12.6219 232.891 13.6061 231.749 13.5935C230.619 13.5935 229.986 12.6219 229.986 11.5241C229.986 10.439 230.619 9.46741 231.749 9.46741ZM243.341 13.9342V10.2497C243.341 9.10148 242.795 8.52106 241.727 8.50844C240.896 8.50844 240.126 9.03839 239.804 9.58097C239.63 8.96269 239.121 8.50844 238.265 8.50844C237.421 8.50844 236.676 9.1141 236.44 9.46741V9.13934C236.44 8.83651 236.204 8.59677 235.906 8.59677C235.633 8.59677 235.398 8.83651 235.398 9.13934V13.9468C235.398 14.237 235.633 14.4767 235.931 14.4767C236.204 14.4767 236.453 14.237 236.453 13.9468V10.7166C236.738 10.3002 237.297 9.6062 237.843 9.6062C238.55 9.6062 238.836 9.92165 238.836 10.5904V13.9468C238.836 14.237 239.084 14.4767 239.369 14.4767C239.667 14.4767 239.903 14.237 239.903 13.9468V10.6661C240.164 10.2497 240.734 9.59358 241.305 9.59358C241.988 9.59358 242.286 9.90903 242.286 10.5778V13.9342C242.286 14.2244 242.522 14.4641 242.807 14.4641C243.093 14.4641 243.341 14.2244 243.341 13.9342Z" fill="#EE2841"/>
<path fill-rule="evenodd" clip-rule="evenodd" d="M279.251 8.08081V3.54313C279.251 3.17017 279.189 2.92153 279.127 2.67289C279.003 2.42425 278.756 2.29993 278.508 2.36209C278.26 2.36209 278.074 2.42425 278.012 2.61073C277.888 2.79721 277.826 2.98369 277.826 3.23233V3.41881C277.579 3.10801 277.269 2.79721 276.897 2.61073C276.525 2.42425 276.092 2.36209 275.72 2.36209C275.348 2.36209 275.039 2.42425 274.791 2.67289C274.481 2.79721 274.233 2.98369 273.985 3.23233C273.738 3.48097 273.552 3.79177 273.428 4.16473C273.304 4.53769 273.242 4.97281 273.242 5.40793C273.242 5.96737 273.304 6.58897 273.552 7.08625C273.738 7.52137 274.047 7.89433 274.419 8.20513C274.853 8.51593 275.286 8.64025 275.782 8.64025C276.154 8.64025 276.525 8.57809 276.897 8.39161C277.269 8.20513 277.517 7.95649 277.764 7.64569C277.702 8.14297 277.702 8.51593 277.702 8.76457V8.76457C277.671 8.85781 277.64 8.96659 277.609 9.07537C277.579 9.18415 277.548 9.29293 277.517 9.38617C277.393 9.63481 277.207 9.75913 277.021 9.88345C276.711 10.0078 276.401 10.0699 276.092 10.0699C275.968 10.0699 275.782 10.0699 275.596 10.0078L275.224 9.82129C275.181 9.77725 275.137 9.74101 275.095 9.70705C275.021 9.64513 274.955 9.59077 274.915 9.51049L274.667 9.19969C274.481 9.01321 274.295 8.88889 274.047 8.88889C273.862 8.88889 273.676 8.95105 273.552 9.07537C273.428 9.13753 273.366 9.32401 273.366 9.51049C273.428 9.82129 273.552 10.0699 273.738 10.2564C274.047 10.5051 274.357 10.6915 274.729 10.8159C275.162 11.0023 275.658 11.0645 276.154 11.0645C276.649 11.0645 277.145 11.0023 277.579 10.9402C277.888 10.8159 278.26 10.6294 278.508 10.3807C278.756 10.1321 278.941 9.82129 279.065 9.44833C279.189 9.01321 279.251 8.51593 279.251 8.08081ZM275.162 6.89977C274.853 6.46465 274.667 5.96737 274.729 5.47009C274.667 4.97281 274.853 4.41337 275.101 4.04041C275.348 3.72961 275.72 3.54313 276.154 3.54313C276.587 3.54313 277.021 3.72961 277.269 4.10257C277.579 4.53769 277.764 5.03497 277.702 5.59441C277.764 5.90521 277.64 6.27817 277.517 6.58897C277.393 6.83761 277.207 7.08625 276.959 7.21057C276.711 7.33489 276.463 7.39705 276.216 7.39705C275.844 7.39705 275.41 7.21057 275.162 6.89977Z" fill="#929091"/>
<path fill-rule="evenodd" clip-rule="evenodd" d="M288.915 6.83757C289.101 6.40245 289.163 5.96733 289.163 5.53221C289.163 5.09709 289.101 4.66197 288.853 4.22685C288.73 3.85389 288.482 3.54309 288.234 3.23229C287.924 2.92149 287.614 2.67285 287.243 2.54853C286.437 2.23773 285.508 2.23773 284.703 2.54853C284.331 2.67285 283.959 2.85933 283.712 3.17013C283.464 3.41877 283.216 3.79173 283.092 4.16469C282.782 5.03493 282.782 5.96733 283.092 6.77541C283.34 7.52133 283.959 8.14293 284.703 8.45373C285.136 8.64021 285.57 8.70237 286.004 8.70237C286.437 8.70237 286.871 8.64021 287.305 8.45373C287.676 8.32941 288.048 8.14293 288.296 7.83213C288.544 7.58349 288.791 7.21053 288.915 6.83757ZM287.181 4.04037C287.491 4.47549 287.676 4.97277 287.614 5.53221C287.676 6.09165 287.491 6.58893 287.181 6.96189C286.933 7.33485 286.499 7.52133 286.066 7.52133C285.756 7.52133 285.508 7.45917 285.26 7.27269C285.013 7.14837 284.827 6.89973 284.703 6.58893C284.455 5.84301 284.455 5.09709 284.703 4.41333C284.827 4.16469 285.013 3.91605 285.26 3.72957C285.508 3.54309 285.756 3.48093 286.066 3.48093C286.499 3.48093 286.933 3.66741 287.181 4.04037Z" fill="#929091"/>
<path fill-rule="evenodd" clip-rule="evenodd" d="M297.588 7.70784V7.83216C297.526 8.0808 297.588 8.32944 297.712 8.51592C297.898 8.7024 298.084 8.76456 298.27 8.76456C298.518 8.76456 298.703 8.64024 298.827 8.51592C298.951 8.32944 299.013 8.0808 299.013 7.83216V0.9324C299.013 0.68376 298.951 0.43512 298.827 0.24864C298.703 0.06216 298.456 0 298.27 0C298.022 0 297.836 0.06216 297.712 0.24864C297.588 0.49728 297.526 0.74592 297.526 0.99456V3.29448C297.452 3.23514 297.382 3.17581 297.313 3.11731C297.091 2.93071 296.88 2.7527 296.597 2.61072C296.225 2.42424 295.854 2.36208 295.482 2.36208C294.801 2.36208 294.119 2.67288 293.624 3.17016C293.128 3.7296 292.88 4.47552 292.88 5.47008C292.88 5.9052 292.942 6.34032 293.066 6.77544C293.19 7.1484 293.376 7.52136 293.624 7.83216C293.809 8.14296 294.119 8.32944 294.429 8.51592C294.739 8.7024 295.11 8.76456 295.482 8.76456C295.792 8.76456 296.04 8.7024 296.287 8.64024L296.287 8.64024C296.535 8.51592 296.783 8.3916 296.969 8.26728C297.156 8.17342 297.308 8.00869 297.451 7.85335C297.497 7.80295 297.543 7.75353 297.588 7.70784ZM294.677 6.58896C294.553 6.27816 294.491 5.9052 294.491 5.53224C294.429 5.15928 294.491 4.84848 294.615 4.47552C294.739 4.22688 294.925 3.97824 295.234 3.79176C295.42 3.60528 295.73 3.54312 295.978 3.54312C296.225 3.54312 296.473 3.60528 296.721 3.79176C296.969 3.97824 297.155 4.22688 297.279 4.47552C297.403 4.78632 297.464 5.15928 297.464 5.53224C297.464 5.9052 297.403 6.27816 297.279 6.65112C297.155 6.96192 296.969 7.1484 296.721 7.33488C296.473 7.4592 296.225 7.52136 295.978 7.52136C295.73 7.52136 295.482 7.39704 295.234 7.27272C294.986 7.08624 294.801 6.8376 294.677 6.58896Z" fill="#929091"/>
<path fill-rule="evenodd" clip-rule="evenodd" d="M306.014 8.5159C306.447 8.32942 306.819 8.08078 307.129 7.83214C307.199 7.92576 307.26 8.01938 307.319 8.10968C307.417 8.25921 307.508 8.39963 307.624 8.5159C307.748 8.70238 307.934 8.76454 308.12 8.76454C308.306 8.76454 308.492 8.70238 308.615 8.57806C308.801 8.45374 308.863 8.32942 308.863 8.14294C308.863 7.95646 308.801 7.70782 308.739 7.52134C308.677 7.21054 308.615 6.89974 308.615 6.58894V4.7863C308.615 4.28902 308.554 3.79174 308.368 3.35662C308.182 3.04582 307.872 2.73502 307.5 2.6107C307.005 2.42422 306.447 2.36206 305.89 2.36206C305.332 2.36206 304.837 2.42422 304.465 2.6107C304.093 2.73502 303.783 2.9215 303.536 3.2323C303.35 3.48094 303.226 3.72958 303.226 4.04038C303.226 4.22686 303.288 4.35118 303.412 4.4755C303.536 4.59982 303.659 4.66198 303.845 4.66198C303.969 4.66198 304.093 4.59982 304.217 4.53766C304.341 4.41334 304.465 4.22686 304.527 4.10254C304.651 3.91606 304.837 3.72958 305.022 3.60526C305.27 3.48094 305.58 3.41878 305.89 3.41878C306.385 3.41878 306.695 3.5431 306.819 3.72958C307.005 4.04038 307.067 4.35118 307.067 4.66198C306.695 4.7863 306.447 4.84846 306.137 4.91062C305.89 5.03494 305.518 5.0971 305.146 5.15926L304.403 5.28358C303.969 5.34574 303.598 5.59438 303.288 5.90518C302.978 6.21598 302.854 6.6511 302.854 7.02406C302.854 7.33486 302.916 7.64566 303.102 7.8943C303.226 8.14294 303.474 8.39158 303.783 8.5159C304.093 8.70238 304.465 8.76454 304.837 8.76454C305.208 8.76454 305.642 8.64022 306.014 8.5159ZM306.209 5.81673C306.488 5.76223 306.8 5.70129 307.067 5.59438L307.005 5.84302C307.067 6.27814 307.005 6.6511 306.819 7.02406C306.695 7.21054 306.509 7.39702 306.261 7.52134C305.952 7.64566 305.704 7.70782 305.394 7.70782C305.146 7.70782 304.898 7.64566 304.713 7.45918C304.527 7.2727 304.403 7.08622 304.403 6.83758C304.403 6.58894 304.527 6.40246 304.651 6.27814C304.775 6.15382 304.96 6.09166 305.146 6.0295C305.239 6.0295 305.363 5.99842 305.518 5.95957C305.673 5.92072 305.859 5.8741 306.076 5.84302C306.119 5.83431 306.164 5.82561 306.209 5.81673Z" fill="#929091"/>
<path fill-rule="evenodd" clip-rule="evenodd" d="M266.489 8.5159C266.923 8.32942 267.295 8.08078 267.605 7.83214C267.79 8.08078 267.976 8.32942 268.1 8.5159C268.224 8.70238 268.41 8.76454 268.596 8.76454C268.782 8.76454 268.967 8.70238 269.091 8.57806C269.215 8.45374 269.339 8.32942 269.339 8.14294C269.339 7.95646 269.277 7.70782 269.215 7.52134C269.153 7.21054 269.091 6.89974 269.091 6.58894V4.7863C269.091 4.28902 269.029 3.79174 268.844 3.35662C268.658 2.98366 268.348 2.73502 267.976 2.6107C267.481 2.42422 266.923 2.36206 266.366 2.36206C265.808 2.36206 265.312 2.42422 264.879 2.6107C264.507 2.73502 264.197 2.9215 263.95 3.2323C263.764 3.48094 263.64 3.72958 263.64 4.04038C263.64 4.22686 263.702 4.41334 263.826 4.4755C263.95 4.59982 264.073 4.66198 264.259 4.66198C264.383 4.66198 264.507 4.66198 264.631 4.53766C264.693 4.4755 264.817 4.35118 264.941 4.10254C265.065 3.91606 265.25 3.72958 265.498 3.66742C265.746 3.5431 266.056 3.48094 266.366 3.48094C266.799 3.48094 267.109 3.5431 267.233 3.72958C267.419 4.04038 267.481 4.35118 267.481 4.66198C267.296 4.69896 267.112 4.75793 266.941 4.81273C266.824 4.85005 266.714 4.88544 266.613 4.91062C266.366 5.03494 265.994 5.0971 265.622 5.15926L264.879 5.28358C264.445 5.34574 264.073 5.59438 263.764 5.90518C263.454 6.21598 263.33 6.6511 263.33 7.02406C263.33 7.33486 263.392 7.64566 263.578 7.8943C263.702 8.14294 263.95 8.39158 264.259 8.5159C264.569 8.70238 264.941 8.76454 265.312 8.76454C265.684 8.76454 266.118 8.64022 266.489 8.5159ZM266.685 5.81673C266.964 5.76223 267.276 5.70129 267.543 5.59438L267.481 5.84302C267.543 6.27814 267.481 6.6511 267.295 7.02406C267.171 7.21054 266.985 7.39702 266.737 7.52134C266.428 7.64566 266.18 7.70782 265.87 7.70782C265.622 7.70782 265.374 7.64566 265.189 7.45918C265.003 7.2727 264.879 7.08622 264.879 6.83758C264.879 6.58894 265.003 6.40246 265.127 6.27814C265.25 6.15382 265.436 6.09166 265.622 6.0295C265.808 6.0295 266.118 5.96734 266.551 5.84302C266.595 5.83431 266.639 5.82561 266.685 5.81673Z" fill="#929091"/>
<path d="M266.304 12.432C267.976 12.432 269.277 13.7995 269.277 15.4157C269.277 17.094 267.914 18.3994 266.304 18.3994C264.631 18.3994 263.33 17.0318 263.33 15.4157C263.33 13.7374 264.693 12.432 266.304 12.432Z" fill="#ED2A28"/>
<path d="M276.216 12.432C277.888 12.432 279.189 13.7995 279.189 15.4157C279.189 17.094 277.826 18.3994 276.216 18.3994C274.543 18.3994 273.242 17.0318 273.242 15.4157C273.242 13.7374 274.543 12.432 276.216 12.432Z" fill="#F59E22"/>
<path d="M286.066 12.432C287.738 12.432 289.039 13.7995 289.039 15.4157C289.039 17.094 287.676 18.3994 286.066 18.3994C284.393 18.3994 283.092 17.0318 283.092 15.4157C283.092 13.7374 284.455 12.432 286.066 12.432Z" fill="#16AC5B"/>
<path d="M295.978 12.432C297.65 12.432 298.951 13.7995 298.951 15.4157C298.951 17.094 297.588 18.3994 295.978 18.3994C294.305 18.3994 293.004 17.0318 293.004 15.4157C293.004 13.7374 294.305 12.432 295.978 12.432Z" fill="#8252A1"/>
<path d="M305.89 12.432C307.562 12.432 308.863 13.7995 308.863 15.4157C308.863 17.094 307.5 18.3994 305.89 18.3994C304.217 18.3994 302.916 17.0318 302.916 15.4157C302.854 13.7374 304.217 12.432 305.89 12.432Z" fill="#347FC2"/>
</svg>
