<svg width="16" height="16" viewBox="0 0 16 16" fill="none" xmlns="http://www.w3.org/2000/svg">
<path fill-rule="evenodd" clip-rule="evenodd" d="M4 6.22222C4 3.89409 5.89409 2 8.22225 2C10.5504 2 12.4444 3.89409 12.4445 6.22222C12.4445 9.11151 8.666 13.3532 8.50512 13.5323C8.35429 13.7003 8.09047 13.7006 7.93937 13.5323C7.7785 13.3532 4 9.11151 4 6.22222ZM6.09795 6.22222C6.09795 7.39358 7.05089 8.34654 8.22225 8.34654C9.39358 8.34654 10.3465 7.3936 10.3465 6.22225C10.3465 5.05089 9.39358 4.09793 8.22225 4.09793C7.05091 4.09793 6.09795 5.05087 6.09795 6.22222Z" fill="#4398FA"/>
</svg>
